<mxfile host="app.diagrams.net" agent="Mozilla/5.0 (Windows NT 10.0; Win64; x64) AppleWebKit/537.36 (KHTML, like Gecko) Chrome/131.0.0.0 Safari/537.36" version="24.8.6">
  <diagram name="PÃ¡gina-1" id="8fKj5qBVyiFFiN35GXs7">
    <mxGraphModel dx="2261" dy="746" grid="1" gridSize="10" guides="1" tooltips="1" connect="1" arrows="1" fold="1" page="1" pageScale="1" pageWidth="827" pageHeight="1169" math="0" shadow="0">
      <root>
        <mxCell id="0" />
        <mxCell id="1" parent="0" />
        <mxCell id="mm6X6uhjUbch8tjwFLjn-1" value="&lt;font style=&quot;vertical-align: inherit;&quot;&gt;&lt;font style=&quot;vertical-align: inherit;&quot;&gt;&lt;font style=&quot;vertical-align: inherit;&quot;&gt;&lt;font style=&quot;vertical-align: inherit;&quot;&gt;PuntoDeVenta &lt;/font&gt;&lt;/font&gt;&lt;/font&gt;&lt;/font&gt;&lt;br&gt;&lt;font style=&quot;vertical-align: inherit;&quot;&gt;&lt;font style=&quot;vertical-align: inherit;&quot;&gt;&lt;font style=&quot;vertical-align: inherit;&quot;&gt;&lt;font style=&quot;vertical-align: inherit;&quot;&gt;(abstract)&lt;/font&gt;&lt;/font&gt;&lt;/font&gt;&lt;/font&gt;" style="swimlane;fontStyle=1;align=center;verticalAlign=top;childLayout=stackLayout;horizontal=1;startSize=40;horizontalStack=0;resizeParent=1;resizeParentMax=0;resizeLast=0;collapsible=1;marginBottom=0;whiteSpace=wrap;html=1;" parent="1" vertex="1">
          <mxGeometry x="284" y="72" width="260" height="128" as="geometry" />
        </mxCell>
        <mxCell id="mm6X6uhjUbch8tjwFLjn-2" value="- String codigo&lt;div&gt;- String direccion&lt;/div&gt;&lt;div&gt;- String telefono&lt;/div&gt;&lt;div&gt;- double area&lt;/div&gt;&lt;div&gt;- double presupuestoVentas&lt;/div&gt;" style="text;strokeColor=none;fillColor=none;align=left;verticalAlign=top;spacingLeft=4;spacingRight=4;overflow=hidden;rotatable=0;points=[[0,0.5],[1,0.5]];portConstraint=eastwest;whiteSpace=wrap;html=1;" parent="mm6X6uhjUbch8tjwFLjn-1" vertex="1">
          <mxGeometry y="40" width="260" height="80" as="geometry" />
        </mxCell>
        <mxCell id="mm6X6uhjUbch8tjwFLjn-3" value="" style="line;strokeWidth=1;fillColor=none;align=left;verticalAlign=middle;spacingTop=-1;spacingLeft=3;spacingRight=3;rotatable=0;labelPosition=right;points=[];portConstraint=eastwest;strokeColor=inherit;" parent="mm6X6uhjUbch8tjwFLjn-1" vertex="1">
          <mxGeometry y="120" width="260" height="8" as="geometry" />
        </mxCell>
        <mxCell id="iMsb4uUGbcwTjFAvWGnZ-5" value="PuntoFabrica" style="swimlane;fontStyle=1;align=center;verticalAlign=top;childLayout=stackLayout;horizontal=1;startSize=26;horizontalStack=0;resizeParent=1;resizeParentMax=0;resizeLast=0;collapsible=1;marginBottom=0;whiteSpace=wrap;html=1;" parent="1" vertex="1">
          <mxGeometry x="-5" y="320" width="240" height="130" as="geometry" />
        </mxCell>
        <mxCell id="iMsb4uUGbcwTjFAvWGnZ-6" value="&lt;div&gt;&lt;br&gt;&lt;/div&gt;" style="text;strokeColor=none;fillColor=none;align=left;verticalAlign=top;spacingLeft=4;spacingRight=4;overflow=hidden;rotatable=0;points=[[0,0.5],[1,0.5]];portConstraint=eastwest;whiteSpace=wrap;html=1;" parent="iMsb4uUGbcwTjFAvWGnZ-5" vertex="1">
          <mxGeometry y="26" width="240" height="4" as="geometry" />
        </mxCell>
        <mxCell id="iMsb4uUGbcwTjFAvWGnZ-7" value="" style="line;strokeWidth=1;fillColor=none;align=left;verticalAlign=middle;spacingTop=-1;spacingLeft=3;spacingRight=3;rotatable=0;labelPosition=right;points=[];portConstraint=eastwest;strokeColor=inherit;" parent="iMsb4uUGbcwTjFAvWGnZ-5" vertex="1">
          <mxGeometry y="30" width="240" height="8" as="geometry" />
        </mxCell>
        <mxCell id="iMsb4uUGbcwTjFAvWGnZ-8" value="+ PuntoDeFabrica(String codigo, String direccion, String telefono, &lt;span class=&quot;hljs-type&quot;&gt;double&lt;/span&gt; area, String administrador, &lt;span class=&quot;hljs-type&quot;&gt;int&lt;/span&gt; numeroEmpleados)&lt;div&gt;&lt;br&gt;&lt;/div&gt;" style="text;strokeColor=none;fillColor=none;align=left;verticalAlign=top;spacingLeft=4;spacingRight=4;overflow=hidden;rotatable=0;points=[[0,0.5],[1,0.5]];portConstraint=eastwest;whiteSpace=wrap;html=1;" parent="iMsb4uUGbcwTjFAvWGnZ-5" vertex="1">
          <mxGeometry y="38" width="240" height="92" as="geometry" />
        </mxCell>
        <mxCell id="iMsb4uUGbcwTjFAvWGnZ-9" value="TiendaCentroComercial" style="swimlane;fontStyle=1;align=center;verticalAlign=top;childLayout=stackLayout;horizontal=1;startSize=26;horizontalStack=0;resizeParent=1;resizeParentMax=0;resizeLast=0;collapsible=1;marginBottom=0;whiteSpace=wrap;html=1;" parent="1" vertex="1">
          <mxGeometry x="300" y="320" width="260" height="150" as="geometry" />
        </mxCell>
        <mxCell id="iMsb4uUGbcwTjFAvWGnZ-10" value="&lt;div&gt;- String lineaRopaMasVendida&lt;/div&gt;&lt;div&gt;&lt;span style=&quot;white-space: pre;&quot;&gt;&#x9;&lt;/span&gt;&lt;/div&gt;" style="text;strokeColor=none;fillColor=none;align=left;verticalAlign=top;spacingLeft=4;spacingRight=4;overflow=hidden;rotatable=0;points=[[0,0.5],[1,0.5]];portConstraint=eastwest;whiteSpace=wrap;html=1;" parent="iMsb4uUGbcwTjFAvWGnZ-9" vertex="1">
          <mxGeometry y="26" width="260" height="34" as="geometry" />
        </mxCell>
        <mxCell id="iMsb4uUGbcwTjFAvWGnZ-11" value="" style="line;strokeWidth=1;fillColor=none;align=left;verticalAlign=middle;spacingTop=-1;spacingLeft=3;spacingRight=3;rotatable=0;labelPosition=right;points=[];portConstraint=eastwest;strokeColor=inherit;" parent="iMsb4uUGbcwTjFAvWGnZ-9" vertex="1">
          <mxGeometry y="60" width="260" height="8" as="geometry" />
        </mxCell>
        <mxCell id="iMsb4uUGbcwTjFAvWGnZ-12" value="+ TiendaCentroComercial(String codigo, String direccion, String telefono, &lt;span class=&quot;hljs-type&quot;&gt;double&lt;/span&gt; area, String administrador, &lt;span class=&quot;hljs-type&quot;&gt;int&lt;/span&gt; numeroEmpleados, String lineaRopaMasVendida)&lt;div&gt;&lt;br&gt;&lt;/div&gt;" style="text;strokeColor=none;fillColor=none;align=left;verticalAlign=top;spacingLeft=4;spacingRight=4;overflow=hidden;rotatable=0;points=[[0,0.5],[1,0.5]];portConstraint=eastwest;whiteSpace=wrap;html=1;" parent="iMsb4uUGbcwTjFAvWGnZ-9" vertex="1">
          <mxGeometry y="68" width="260" height="82" as="geometry" />
        </mxCell>
        <mxCell id="iMsb4uUGbcwTjFAvWGnZ-13" value="EspacioAlmacen" style="swimlane;fontStyle=1;align=center;verticalAlign=top;childLayout=stackLayout;horizontal=1;startSize=26;horizontalStack=0;resizeParent=1;resizeParentMax=0;resizeLast=0;collapsible=1;marginBottom=0;whiteSpace=wrap;html=1;" parent="1" vertex="1">
          <mxGeometry x="610" y="320" width="190" height="80" as="geometry" />
        </mxCell>
        <mxCell id="iMsb4uUGbcwTjFAvWGnZ-14" value="+ EspacioEnAlmacen(String codigo, String direccion, String telefono, &lt;span class=&quot;hljs-type&quot;&gt;double&lt;/span&gt; area)" style="text;strokeColor=none;fillColor=none;align=left;verticalAlign=top;spacingLeft=4;spacingRight=4;overflow=hidden;rotatable=0;points=[[0,0.5],[1,0.5]];portConstraint=eastwest;whiteSpace=wrap;html=1;" parent="iMsb4uUGbcwTjFAvWGnZ-13" vertex="1">
          <mxGeometry y="26" width="190" height="54" as="geometry" />
        </mxCell>
        <mxCell id="LN4ymO2WDMzl8llb_iMi-2" value="&lt;p style=&quot;margin:0px;margin-top:4px;text-align:center;&quot;&gt;&lt;i&gt;&amp;lt;&amp;lt;Interface&amp;gt;&amp;gt;&lt;/i&gt;&lt;br&gt;&lt;b&gt;Interface&lt;/b&gt;&lt;/p&gt;&lt;hr size=&quot;1&quot; style=&quot;border-style:solid;&quot;&gt;&lt;p style=&quot;margin:0px;margin-left:4px;&quot;&gt;+ administrador: String&amp;nbsp;&lt;br&gt;+ numeroEmpleados: int&lt;/p&gt;&lt;hr size=&quot;1&quot; style=&quot;border-style:solid;&quot;&gt;&lt;p style=&quot;margin:0px;margin-left:4px;&quot;&gt;&lt;br&gt;&lt;/p&gt;" style="verticalAlign=top;align=left;overflow=fill;html=1;whiteSpace=wrap;" vertex="1" parent="1">
          <mxGeometry x="20" y="100" width="190" height="80" as="geometry" />
        </mxCell>
      </root>
    </mxGraphModel>
  </diagram>
</mxfile>
